<mxfile host="Electron" modified="2023-05-09T14:18:47.279Z" agent="Mozilla/5.0 (Macintosh; Intel Mac OS X 10_15_7) AppleWebKit/537.36 (KHTML, like Gecko) draw.io/21.2.8 Chrome/112.0.5615.165 Electron/24.2.0 Safari/537.36" etag="JqjetqaZ3c9nXbPsQfiN" version="21.2.8" type="device">
  <diagram name="Page-1" id="ZQaP6m3v3bCAOALgyQ2f">
    <mxGraphModel dx="1242" dy="819" grid="1" gridSize="10" guides="1" tooltips="1" connect="1" arrows="1" fold="1" page="1" pageScale="1" pageWidth="1169" pageHeight="827" math="0" shadow="0">
      <root>
        <mxCell id="0" />
        <mxCell id="1" parent="0" />
        <mxCell id="kzNEx_-M0deKBsbGgkpU-9" style="edgeStyle=orthogonalEdgeStyle;rounded=0;orthogonalLoop=1;jettySize=auto;html=1;entryX=0;entryY=0.5;entryDx=0;entryDy=0;strokeWidth=3;exitX=0.5;exitY=0.5;exitDx=0;exitDy=0;exitPerimeter=0;" parent="1" source="frm9H07xX9OotdOA53Vy-3" target="kzNEx_-M0deKBsbGgkpU-3" edge="1">
          <mxGeometry relative="1" as="geometry">
            <mxPoint x="60" y="225.5" as="sourcePoint" />
            <mxPoint x="800" y="70.5" as="targetPoint" />
            <Array as="points">
              <mxPoint x="400" y="246" />
              <mxPoint x="400" y="86" />
            </Array>
          </mxGeometry>
        </mxCell>
        <mxCell id="kzNEx_-M0deKBsbGgkpU-10" value="&lt;font style=&quot;font-size: 14px;&quot;&gt;Register User A + &lt;br&gt;Send User Credentials at Login&lt;/font&gt;" style="edgeLabel;html=1;align=center;verticalAlign=middle;resizable=0;points=[];" parent="kzNEx_-M0deKBsbGgkpU-9" vertex="1" connectable="0">
          <mxGeometry x="-0.07" y="1" relative="1" as="geometry">
            <mxPoint x="201" y="-50" as="offset" />
          </mxGeometry>
        </mxCell>
        <mxCell id="kzNEx_-M0deKBsbGgkpU-3" value="&lt;font style=&quot;font-size: 18px;&quot;&gt;Internet Service A&lt;/font&gt;" style="rounded=1;whiteSpace=wrap;html=1;fillColor=#fff2cc;strokeColor=#d6b656;" parent="1" vertex="1">
          <mxGeometry x="800" y="26" width="200" height="120" as="geometry" />
        </mxCell>
        <mxCell id="frm9H07xX9OotdOA53Vy-1" value="&lt;font style=&quot;font-size: 18px;&quot;&gt;Internet Service B&lt;/font&gt;" style="rounded=1;whiteSpace=wrap;html=1;fillColor=#dae8fc;strokeColor=#6c8ebf;" vertex="1" parent="1">
          <mxGeometry x="800" y="186" width="200" height="120" as="geometry" />
        </mxCell>
        <mxCell id="frm9H07xX9OotdOA53Vy-2" value="&lt;font style=&quot;font-size: 18px;&quot;&gt;Internet Service C&lt;/font&gt;" style="rounded=1;whiteSpace=wrap;html=1;fillColor=#ffe6cc;strokeColor=#d79b00;" vertex="1" parent="1">
          <mxGeometry x="800" y="346" width="200" height="120" as="geometry" />
        </mxCell>
        <mxCell id="frm9H07xX9OotdOA53Vy-3" value="&lt;font style=&quot;font-size: 18px;&quot;&gt;User&lt;/font&gt;" style="shape=umlActor;verticalLabelPosition=bottom;verticalAlign=top;html=1;outlineConnect=0;" vertex="1" parent="1">
          <mxGeometry x="95" y="201" width="45" height="90" as="geometry" />
        </mxCell>
        <mxCell id="frm9H07xX9OotdOA53Vy-6" style="edgeStyle=orthogonalEdgeStyle;rounded=0;orthogonalLoop=1;jettySize=auto;html=1;entryX=0;entryY=0.5;entryDx=0;entryDy=0;strokeWidth=3;exitX=0.5;exitY=0.5;exitDx=0;exitDy=0;exitPerimeter=0;" edge="1" parent="1" source="frm9H07xX9OotdOA53Vy-3" target="frm9H07xX9OotdOA53Vy-1">
          <mxGeometry relative="1" as="geometry">
            <mxPoint x="83" y="296" as="sourcePoint" />
            <mxPoint x="810" y="96" as="targetPoint" />
          </mxGeometry>
        </mxCell>
        <mxCell id="frm9H07xX9OotdOA53Vy-7" value="&lt;font style=&quot;font-size: 14px;&quot;&gt;Register User B + &lt;br&gt;Send User Credentials at Login&lt;/font&gt;" style="edgeLabel;html=1;align=center;verticalAlign=middle;resizable=0;points=[];" vertex="1" connectable="0" parent="frm9H07xX9OotdOA53Vy-6">
          <mxGeometry x="-0.07" y="1" relative="1" as="geometry">
            <mxPoint x="166" y="1" as="offset" />
          </mxGeometry>
        </mxCell>
        <mxCell id="frm9H07xX9OotdOA53Vy-8" style="edgeStyle=orthogonalEdgeStyle;rounded=0;orthogonalLoop=1;jettySize=auto;html=1;entryX=0;entryY=0.5;entryDx=0;entryDy=0;strokeWidth=3;exitX=0.5;exitY=0.5;exitDx=0;exitDy=0;exitPerimeter=0;" edge="1" parent="1" source="frm9H07xX9OotdOA53Vy-3" target="frm9H07xX9OotdOA53Vy-2">
          <mxGeometry relative="1" as="geometry">
            <mxPoint x="83" y="296" as="sourcePoint" />
            <mxPoint x="810" y="296" as="targetPoint" />
            <Array as="points">
              <mxPoint x="400" y="246" />
              <mxPoint x="400" y="406" />
            </Array>
          </mxGeometry>
        </mxCell>
        <mxCell id="frm9H07xX9OotdOA53Vy-9" value="&lt;font style=&quot;font-size: 14px;&quot;&gt;Register User C + &lt;br&gt;Send User Credentials at Login&lt;/font&gt;" style="edgeLabel;html=1;align=center;verticalAlign=middle;resizable=0;points=[];" vertex="1" connectable="0" parent="frm9H07xX9OotdOA53Vy-8">
          <mxGeometry x="-0.07" y="1" relative="1" as="geometry">
            <mxPoint x="199" y="51" as="offset" />
          </mxGeometry>
        </mxCell>
      </root>
    </mxGraphModel>
  </diagram>
</mxfile>
